<svg xmlns="http://www.w3.org/2000/svg" width="50" height="33" viewBox="0 0 50 33" fill="none">
<path d="M25 21.9999C27.9455 21.9999 30.3333 19.6121 30.3333 16.6666C30.3333 13.7211 27.9455 11.3333 25 11.3333C22.0544 11.3333 19.6666 13.7211 19.6666 16.6666C19.6666 19.6121 22.0544 21.9999 25 21.9999Z" stroke="#0080FF" stroke-width="2.66667" stroke-linejoin="round"/>
<path d="M25 2C13.5205 2 4.93645 11.5555 2.05261 15.2408C1.3892 16.0885 1.3892 17.2448 2.05261 18.0925C4.93645 21.7779 13.5205 31.3333 25 31.3333C36.4795 31.3333 45.0635 21.7779 47.9475 18.0925C48.6109 17.2448 48.6109 16.0885 47.9475 15.2408C45.0635 11.5555 36.4795 2 25 2Z" stroke="#0080FF" stroke-width="2.66667" stroke-linecap="round" stroke-linejoin="round"/>
</svg>